PathFileType	4	(X/Y/Z)	TVC_16_BWA4_walk_RCNL2025.trc
DataRate	CameraRate	NumFrames	NumMarkers	Units	OrigDataRate	OrigDataStartFrame	OrigNumFrames
100	100	9	27	mm	100	356	947
Frame#	Time	R_Shoulder			L_Shoulder			C7			J_Notch			R_Elbow			L_Elbow			R_Wrist			L_Wrist			R_Asis			L_Asis			R_Psis			L_Psis			Sacral			Thoracic			Sternum			R_Thigh_Lateral			R_Knee_Lateral			R_Shank_Lateral			R_Ankle_Lateral			R_Heel			R_Toe			L_Thigh_Lateral			L_Knee_Lateral			L_Shank_Lateral			L_Ankle_Lateral			L_Heel			L_Toe		
		X1	Y1	Z1	X2	Y2	Z2	X3	Y3	Z3	X4	Y4	Z4	X5	Y5	Z5	X6	Y6	Z6	X7	Y7	Z7	X8	Y8	Z8	X9	Y9	Z9	X10	Y10	Z10	X11	Y11	Z11	X12	Y12	Z12	X13	Y13	Z13	X14	Y14	Z14	X15	Y15	Z15	X16	Y16	Z16	X17	Y17	Z17	X18	Y18	Z18	X19	Y19	Z19	X20	Y20	Z20	X21	Y21	Z21	X22	Y22	Z22	X23	Y23	Z23	X24	Y24	Z24	X25	Y25	Z25	X26	Y26	Z26	X27	Y27	Z27
356	3.55000000	-905.530762	1280.296875	462.211121	-913.322754	1274.919800	135.426834	-972.331055	1339.451172	305.385162	-848.888184	1194.579956	308.077118	-983.290222	985.925293	568.648987	-906.261536	953.566528	64.534767	-896.072968	772.787964	598.776337	-815.125244	763.726349	128.530285	-947.893127	852.730286	434.171509	-957.180969	874.428040	172.037125	-1120.327515	907.784729	361.979401	-1120.636230	911.030640	255.065140	-1120.481873	909.407684	308.522270	-1076.120728	1090.402832	302.920135	-843.406616	1000.276306	300.700684	-934.101868	590.233337	529.535950	-848.478088	431.656128	452.476166	-947.179749	302.756500	502.324310	-1108.142700	152.485870	434.789612	-1150.683594	172.727798	383.022247	-1021.024170	69.718224	399.621460	-946.523499	585.138428	94.890785	-895.069946	419.754364	200.771317	-945.823669	272.647644	141.823517	-1003.945251	56.985428	222.447754	-1050.046509	55.363209	266.537140	-871.922180	36.976669	260.767853
357	3.56000000	-901.004822	1279.754272	463.457764	-908.724487	1275.572266	136.659042	-967.579285	1339.590820	306.777954	-844.603577	1194.369995	309.215363	-980.344543	985.443909	568.937134	-901.179749	954.293274	65.220810	-895.273956	771.429260	599.487091	-809.138062	764.783966	129.031212	-943.828186	852.707275	433.620331	-954.747009	874.717041	171.764969	-1116.525757	908.282959	362.583618	-1117.221191	911.562622	255.570908	-1116.873474	909.922791	309.077263	-1072.040039	1090.838013	303.614960	-839.761902	1000.162598	301.353149	-929.653198	591.309509	529.897034	-838.892944	435.150726	452.955963	-934.800049	304.906647	503.956573	-1088.860596	147.348785	436.615753	-1132.069946	165.383408	384.612885	-997.992065	68.688820	402.272827	-945.001221	585.185181	94.809845	-894.115295	419.461273	200.554825	-945.328003	272.475372	141.705109	-1003.921509	56.963100	222.402481	-1050.048950	55.423714	266.448334	-871.943848	36.967567	260.696320
358	3.57000000	-896.463562	1279.238281	464.759888	-904.216309	1276.348877	137.935760	-962.849304	1339.780029	308.261078	-840.323547	1194.245850	310.378662	-977.327820	984.967468	569.214783	-896.253235	955.149231	65.932564	-894.392792	770.086578	600.106506	-803.254425	765.988495	129.518154	-939.682983	852.774902	433.091370	-952.269104	875.013306	171.560410	-1112.702515	908.858215	363.235474	-1113.794189	912.167969	256.115387	-1113.248352	910.513092	309.675430	-1067.957397	1091.318726	304.375610	-836.095703	1000.146423	301.986786	-925.310486	592.403015	530.333008	-830.013550	438.503204	453.528015	-922.686890	306.764832	505.648682	-1068.937622	141.679245	438.417267	-1112.719116	157.430313	386.192352	-974.393066	67.485329	404.797638	-943.503967	585.315002	94.755508	-893.322266	419.214325	200.345764	-944.958435	272.340454	141.588058	-1003.909790	56.942482	222.359802	-1050.063354	55.467648	266.360016	-871.966614	36.963661	260.617218
359	3.58000000	-891.895691	1278.738892	466.109863	-899.787415	1277.234741	139.253616	-958.133240	1340.010254	309.828827	-836.041077	1194.194214	311.556030	-974.234741	984.494995	569.488953	-891.469727	956.122986	66.659752	-893.410980	768.766327	600.642487	-797.481262	767.326904	129.994904	-935.457397	852.922241	432.621613	-949.713562	875.312866	171.432510	-1108.855103	909.493652	363.931000	-1110.353882	912.839417	256.705780	-1109.604492	911.166534	310.318390	-1063.868164	1091.837280	305.203278	-832.398682	1000.207336	302.590179	-921.074158	593.468262	530.844910	-821.864075	441.639374	454.184448	-910.798035	308.247650	507.359558	-1048.410645	135.609833	440.194244	-1092.655273	148.994461	387.746735	-950.300659	66.210320	407.246979	-942.028137	585.512573	94.729881	-892.676086	419.011292	200.146301	-944.714294	272.243103	141.472916	-1003.910156	56.924309	222.321381	-1050.084351	55.496136	266.276825	-871.988953	36.965092	260.532257
360	3.59000000	-887.289307	1278.245850	467.500122	-895.425537	1278.212769	140.610138	-953.423706	1340.271973	311.475525	-831.750000	1194.199585	312.737793	-971.061035	984.024902	569.766296	-886.819641	957.199036	67.393677	-892.311340	767.473541	601.103058	-791.825012	768.783844	130.466255	-931.155273	853.137207	432.249329	-947.055908	875.616272	171.387070	-1104.980835	910.171082	364.668091	-1106.899658	913.565857	257.349884	-1105.940247	911.868469	311.008987	-1059.769165	1092.385010	306.100250	-828.664124	1000.324768	303.152588	-916.960999	594.455688	531.433044	-814.456360	444.491058	454.915314	-899.090698	309.298523	509.054688	-1027.331421	129.277222	441.950775	-1071.928101	140.213974	389.275787	-925.806580	64.964020	409.647705	-940.579651	585.761780	94.734863	-892.157898	418.848450	199.957581	-944.589417	272.181549	141.360229	-1003.922607	56.909256	222.288666	-1050.107178	55.511143	266.203430	-872.009399	36.971394	260.443665
361	3.60000000	-882.632874	1277.749268	468.923645	-891.118958	1279.263672	142.003860	-948.714294	1340.555176	313.195984	-827.445862	1194.245972	313.915924	-967.803894	983.555054	570.053040	-882.297607	958.358582	68.127892	-891.078522	766.211334	601.496216	-786.291382	770.341888	130.937527	-926.784546	853.406311	432.010529	-944.281921	875.926758	171.426788	-1101.075928	910.870972	365.446747	-1103.430298	914.332336	258.055695	-1102.253113	912.601654	311.751221	-1055.658569	1092.952148	307.070007	-824.888123	1000.478271	303.664795	-912.998474	595.315979	532.097046	-807.789185	446.998505	455.708862	-887.526611	309.891846	510.707916	-1005.773865	122.817558	443.694366	-1050.619873	131.236069	390.793243	-901.027344	63.837570	412.000397	-939.172119	586.046814	94.771904	-891.744751	418.720490	199.779800	-944.571106	272.151886	141.250870	-1003.946594	56.897766	222.262802	-1050.129395	55.515404	266.143982	-872.027039	36.981541	260.354095
362	3.61000000	-877.915833	1277.239868	470.374390	-886.858093	1280.367065	143.434402	-944.001099	1340.848755	314.985840	-823.125854	1194.317017	315.084351	-964.461365	983.082214	570.354675	-877.902527	959.579956	68.858589	-889.698914	764.980713	601.830261	-780.885132	771.981842	131.414303	-922.356750	853.713684	431.935181	-941.388550	876.248962	171.551620	-1097.135864	911.572998	366.269318	-1099.943848	915.121094	258.831268	-1098.539856	913.347046	312.550293	-1051.535767	1093.528198	308.117401	-821.069641	1000.648743	304.120117	-909.218506	596.004639	532.835083	-801.847900	449.112579	456.551605	-876.078186	310.033051	512.301697	-983.841370	116.361977	445.434601	-1028.852539	122.212654	392.323944	-876.109802	62.906639	414.281677	-937.824097	586.352905	94.842041	-891.409363	418.620422	199.612518	-944.639709	272.148102	141.146179	-1003.981201	56.889961	222.244583	-1050.150146	55.512257	266.101898	-872.041443	36.994102	260.266388
363	3.62000000	-873.129700	1276.709229	471.847870	-882.636658	1281.501831	144.902725	-939.283020	1341.141357	316.842041	-818.789490	1194.396973	316.238983	-961.032104	982.601929	570.676208	-873.636169	960.839905	69.584656	-888.160889	763.780243	602.113770	-775.610077	773.683014	131.902195	-917.884888	854.040955	432.043304	-938.382690	876.586731	171.759460	-1093.154419	912.256165	367.140808	-1096.437134	915.911621	259.685272	-1094.795776	914.083893	313.413040	-1047.401123	1094.100586	309.248810	-817.210510	1000.818909	304.514618	-905.652100	596.485413	533.644043	-796.604919	450.796448	457.428406	-864.733643	309.754913	513.825928	-961.673889	110.032501	447.181183	-1006.790894	113.294907	393.898773	-851.234375	62.225891	416.451202	-936.554810	586.666565	94.946289	-891.120117	418.539429	199.455200	-944.768799	272.162354	141.048187	-1004.024536	56.885612	222.234497	-1050.170410	55.505409	266.079559	-872.052917	37.007431	260.183472
364	3.63000000	-868.268616	1276.150269	473.341309	-878.453125	1282.646729	146.411240	-934.562439	1341.421265	318.762878	-814.438599	1194.471558	317.377686	-957.515259	982.108459	571.022034	-869.501465	962.115112	70.307304	-886.454559	762.606018	602.355865	-770.468597	775.423706	132.406837	-913.381287	854.366760	432.341827	-935.279968	876.941528	172.046738	-1089.123535	912.898865	368.069183	-1092.906006	916.681763	260.627319	-1091.014771	914.790314	314.348251	-1043.255981	1094.655640	310.472015	-813.314636	1000.973572	304.847504	-902.324585	596.732788	534.518738	-792.019653	452.026947	458.322815	-853.503174	309.110992	515.275818	-939.452515	103.937958	448.941528	-984.644348	104.626999	395.548126	-826.615906	61.824577	418.460907	-935.380066	586.975403	95.086151	-890.841309	418.467072	199.307846	-944.925781	272.185577	140.959824	-1004.074158	56.884201	222.232773	-1050.191650	55.498714	266.078247	-872.062256	37.019901	260.107819
